<mxfile host="app.diagrams.net" agent="Mozilla/5.0 (Windows NT 10.0; Win64; x64) AppleWebKit/537.36 (KHTML, like Gecko) Chrome/140.0.0.0 Safari/537.36" version="28.2.5">
  <diagram name="第 1 页" id="6WWq-nbOatfNBsCPkSmO">
    <mxGraphModel dx="618" dy="359" grid="1" gridSize="10" guides="1" tooltips="1" connect="1" arrows="1" fold="1" page="1" pageScale="1" pageWidth="1169" pageHeight="827" math="0" shadow="0">
      <root>
        <mxCell id="0" />
        <mxCell id="1" parent="0" />
        <mxCell id="vh5hTStq5mPvq3Fip7hm-23" style="edgeStyle=orthogonalEdgeStyle;rounded=0;orthogonalLoop=1;jettySize=auto;html=1;entryX=0;entryY=0.5;entryDx=0;entryDy=0;fontFamily=宋体;" edge="1" parent="1" source="vh5hTStq5mPvq3Fip7hm-14" target="vh5hTStq5mPvq3Fip7hm-17">
          <mxGeometry relative="1" as="geometry" />
        </mxCell>
        <mxCell id="vh5hTStq5mPvq3Fip7hm-14" value="代码管理模块" style="rounded=1;whiteSpace=wrap;html=1;fillColor=#f8cecc;strokeColor=#b85450;fontFamily=宋体;" vertex="1" parent="1">
          <mxGeometry x="185" y="150" width="80" height="60" as="geometry" />
        </mxCell>
        <mxCell id="vh5hTStq5mPvq3Fip7hm-24" style="edgeStyle=orthogonalEdgeStyle;rounded=0;orthogonalLoop=1;jettySize=auto;html=1;entryX=0;entryY=0.5;entryDx=0;entryDy=0;fontFamily=宋体;" edge="1" parent="1" source="vh5hTStq5mPvq3Fip7hm-17" target="vh5hTStq5mPvq3Fip7hm-19">
          <mxGeometry relative="1" as="geometry" />
        </mxCell>
        <mxCell id="vh5hTStq5mPvq3Fip7hm-17" value="项目代码版本管理模块" style="rounded=1;whiteSpace=wrap;html=1;fillColor=#f8cecc;strokeColor=#b85450;fontFamily=宋体;" vertex="1" parent="1">
          <mxGeometry x="280" y="150" width="80" height="60" as="geometry" />
        </mxCell>
        <mxCell id="vh5hTStq5mPvq3Fip7hm-25" style="edgeStyle=orthogonalEdgeStyle;rounded=0;orthogonalLoop=1;jettySize=auto;html=1;entryX=0;entryY=0.5;entryDx=0;entryDy=0;fontFamily=宋体;" edge="1" parent="1" source="vh5hTStq5mPvq3Fip7hm-19" target="vh5hTStq5mPvq3Fip7hm-21">
          <mxGeometry relative="1" as="geometry" />
        </mxCell>
        <mxCell id="vh5hTStq5mPvq3Fip7hm-19" value="测试平台管理模块" style="rounded=1;whiteSpace=wrap;html=1;fillColor=#f8cecc;strokeColor=#b85450;fontFamily=宋体;" vertex="1" parent="1">
          <mxGeometry x="377" y="150" width="80" height="60" as="geometry" />
        </mxCell>
        <mxCell id="vh5hTStq5mPvq3Fip7hm-28" value="" style="edgeStyle=orthogonalEdgeStyle;rounded=0;orthogonalLoop=1;jettySize=auto;html=1;fontFamily=宋体;" edge="1" parent="1" source="vh5hTStq5mPvq3Fip7hm-21" target="vh5hTStq5mPvq3Fip7hm-27">
          <mxGeometry relative="1" as="geometry" />
        </mxCell>
        <mxCell id="vh5hTStq5mPvq3Fip7hm-21" value="测试报告分析模块" style="rounded=1;whiteSpace=wrap;html=1;fillColor=#f8cecc;strokeColor=#b85450;fontFamily=宋体;" vertex="1" parent="1">
          <mxGeometry x="474" y="150" width="80" height="60" as="geometry" />
        </mxCell>
        <mxCell id="vh5hTStq5mPvq3Fip7hm-26" style="edgeStyle=orthogonalEdgeStyle;rounded=0;orthogonalLoop=1;jettySize=auto;html=1;entryX=0;entryY=0.5;entryDx=0;entryDy=0;fontFamily=宋体;" edge="1" parent="1" source="vh5hTStq5mPvq3Fip7hm-22" target="vh5hTStq5mPvq3Fip7hm-14">
          <mxGeometry relative="1" as="geometry" />
        </mxCell>
        <mxCell id="vh5hTStq5mPvq3Fip7hm-22" value="SQL集" style="rounded=1;whiteSpace=wrap;html=1;fillColor=#ffe6cc;strokeColor=#d79b00;fontFamily=宋体;" vertex="1" parent="1">
          <mxGeometry x="90" y="150" width="80" height="60" as="geometry" />
        </mxCell>
        <mxCell id="vh5hTStq5mPvq3Fip7hm-35" style="edgeStyle=orthogonalEdgeStyle;rounded=0;orthogonalLoop=1;jettySize=auto;html=1;entryX=0.5;entryY=1;entryDx=0;entryDy=0;" edge="1" parent="1" source="vh5hTStq5mPvq3Fip7hm-27" target="vh5hTStq5mPvq3Fip7hm-22">
          <mxGeometry relative="1" as="geometry">
            <Array as="points">
              <mxPoint x="612" y="230" />
              <mxPoint x="130" y="230" />
            </Array>
          </mxGeometry>
        </mxCell>
        <mxCell id="vh5hTStq5mPvq3Fip7hm-27" value="结果" style="rounded=1;whiteSpace=wrap;html=1;fillColor=#ffe6cc;strokeColor=#d79b00;fontFamily=宋体;" vertex="1" parent="1">
          <mxGeometry x="572" y="150" width="80" height="60" as="geometry" />
        </mxCell>
      </root>
    </mxGraphModel>
  </diagram>
</mxfile>
